<?xml version="1.0" standalone="no"?>
<!DOCTYPE svg PUBLIC "-//W3C//DTD SVG 20010904//EN"
 "http://www.w3.org/TR/2001/REC-SVG-20010904/DTD/svg10.dtd">
<svg version="1.0" xmlns="http://www.w3.org/2000/svg"
 width="300.000000pt" height="298.000000pt" viewBox="0 0 300.000000 298.000000"
 preserveAspectRatio="xMidYMid meet">
<metadata>
Created by potrace 1.10, written by Peter Selinger 2001-2011
</metadata>
<g transform="translate(0.000000,298.000000) scale(0.100000,-0.100000)"
fill="#000000" stroke="none">
<path d="M1547 2565 c-22 -121 -44 -223 -50 -227 -20 -13 -44 -9 -67 10 -18
15 -29 51 -60 203 -21 101 -40 193 -43 204 -4 11 -4 -70 -1 -180 5 -194 5
-201 -16 -228 -14 -18 -31 -27 -50 -27 -27 0 -31 7 -111 200 -45 110 -84 198
-86 196 -2 -2 5 -39 16 -82 50 -202 72 -323 62 -343 -13 -23 -43 -35 -68 -27
-10 3 -71 85 -135 182 -115 171 -143 202 -94 106 45 -89 136 -311 136 -331 0
-21 -35 -51 -60 -51 -8 0 -82 67 -165 150 -145 145 -188 180 -128 103 17 -21
72 -98 122 -172 99 -143 108 -174 56 -187 -43 -11 -74 4 -232 111 -84 57 -153
101 -152 97 0 -4 63 -65 139 -137 76 -71 141 -140 145 -152 11 -35 -2 -72 -28
-78 -19 -5 -145 42 -370 139 -47 21 -47 14 1 -15 20 -13 101 -65 180 -116 130
-85 143 -96 140 -120 -2 -14 -14 -34 -28 -44 -24 -18 -29 -17 -224 22 -109 22
-201 37 -204 34 -3 -3 0 -5 7 -5 15 0 373 -140 385 -151 15 -13 9 -59 -9 -79
-16 -18 -34 -20 -224 -22 l-206 -3 209 -37 c123 -22 213 -43 218 -50 11 -17 1
-59 -20 -79 -11 -11 -87 -31 -207 -54 -104 -21 -192 -40 -195 -43 -3 -2 81 -1
186 3 159 6 196 4 227 -8 35 -15 57 -53 43 -75 -3 -5 -94 -46 -203 -92 -194
-81 -233 -99 -183 -87 14 4 109 26 212 49 184 40 188 41 208 23 14 -13 20 -29
18 -49 -3 -26 -23 -43 -175 -145 -94 -64 -171 -117 -169 -118 1 -1 89 36 195
82 207 92 221 94 242 38 8 -23 2 -33 -71 -113 -44 -48 -112 -117 -151 -154
-39 -37 -69 -69 -67 -70 1 -2 82 52 178 120 96 68 178 124 182 124 17 0 48
-42 48 -65 0 -14 -40 -85 -97 -172 -54 -82 -107 -161 -118 -178 -10 -16 50 41
135 128 162 165 177 174 221 139 l22 -19 -45 -114 c-26 -63 -64 -156 -86 -206
-22 -51 -37 -93 -34 -93 4 0 31 40 59 88 107 178 178 277 199 280 11 2 31 -6
45 -17 l24 -19 -39 -199 c-52 -263 -49 -243 -37 -218 6 11 42 102 81 203 77
196 89 213 138 190 l27 -13 5 -225 5 -225 38 220 c22 121 41 223 44 228 2 4
17 7 33 7 50 0 64 -32 105 -242 21 -106 40 -195 43 -198 2 -3 2 88 -2 202 l-7
208 25 25 c14 14 34 25 46 25 23 0 34 -21 136 -267 32 -78 59 -141 61 -140 1
2 -18 93 -42 202 -25 110 -45 208 -45 217 0 21 29 38 64 38 22 0 42 -24 143
-175 112 -168 146 -211 105 -128 -11 21 -50 110 -88 197 l-68 159 28 23 c15
13 33 24 40 24 8 0 84 -69 170 -154 86 -84 156 -151 156 -148 0 3 -17 28 -38
56 -68 91 -212 304 -212 313 0 19 37 43 64 43 18 0 83 -37 193 -110 91 -61
167 -110 170 -110 2 0 -66 69 -153 153 l-157 153 14 28 c26 54 30 53 249 -37
113 -47 196 -79 185 -70 -11 8 -89 59 -174 113 -186 119 -188 121 -175 156 19
54 19 54 444 -31 22 -5 23 -4 5 4 -11 6 -102 42 -203 81 -197 77 -213 89 -192
141 l12 29 221 0 c121 0 218 2 216 4 -2 2 -98 21 -214 42 -115 20 -213 42
-217 48 -4 6 -8 20 -8 32 0 47 19 55 236 100 l209 44 -223 -4 -222 -5 -16 24
c-34 51 -18 64 168 142 238 99 248 104 218 99 -14 -2 -111 -23 -216 -46 -105
-24 -199 -40 -207 -37 -21 8 -33 55 -20 76 5 9 87 68 180 131 94 63 170 116
169 117 -2 2 -90 -35 -197 -82 -106 -47 -199 -85 -205 -85 -6 0 -18 8 -27 18
-36 40 -24 60 136 221 83 85 142 148 130 140 -12 -8 -94 -65 -183 -127 -173
-121 -189 -127 -209 -70 -13 36 -15 32 123 238 50 74 95 141 100 150 4 8 -60
-56 -144 -142 -116 -121 -158 -158 -176 -158 -32 0 -64 17 -64 34 0 14 131
340 156 388 8 16 11 28 6 28 -5 0 -13 -9 -18 -19 -5 -11 -56 -94 -114 -185
-91 -144 -108 -166 -131 -166 -28 0 -59 27 -59 52 0 8 18 104 40 213 38 194
44 240 21 173 -6 -18 -41 -110 -78 -205 -72 -183 -81 -195 -133 -170 l-25 12
-5 225 -5 225 -38 -220z m-104 -266 c7 0 20 -2 30 -4 10 -2 31 8 48 22 l30 26
33 -32 c36 -35 78 -41 114 -15 13 9 24 14 26 13 1 -2 10 -17 20 -32 23 -38 74
-61 106 -49 39 15 45 14 46 -10 1 -12 16 -35 34 -51 32 -29 66 -33 110 -13 13
5 15 0 12 -32 -5 -56 35 -102 89 -102 38 0 38 -1 27 -25 -18 -39 12 -92 62
-113 28 -12 38 -22 34 -32 -19 -52 -16 -70 17 -103 19 -19 41 -36 49 -39 13
-4 12 -8 -4 -27 -32 -35 -25 -79 18 -118 l37 -34 -22 -31 c-28 -39 -28 -80 -1
-118 l22 -29 -30 -30 c-35 -34 -40 -82 -13 -121 13 -18 14 -25 4 -28 -52 -17
-88 -92 -66 -136 13 -24 12 -26 -20 -36 -51 -17 -70 -45 -70 -101 0 -45 -2
-49 -23 -49 -55 0 -109 -56 -100 -103 4 -23 3 -24 -38 -19 -39 4 -47 1 -74
-28 -17 -18 -30 -43 -30 -57 0 -20 -4 -24 -17 -18 -56 22 -82 18 -116 -16 -19
-19 -36 -41 -39 -49 -4 -13 -8 -13 -25 2 -34 30 -81 23 -120 -18 l-34 -37 -22
21 c-29 27 -72 43 -94 35 -10 -3 -28 -15 -40 -26 l-22 -20 -36 32 c-40 35 -78
40 -114 14 -23 -15 -25 -15 -37 3 -43 63 -95 81 -142 48 -21 -15 -22 -14 -22
14 0 18 -10 38 -29 56 -30 29 -49 33 -96 22 -30 -6 -30 -6 -31 35 0 34 -6 47
-33 71 -22 20 -41 28 -59 26 -25 -3 -26 -1 -24 38 3 36 -1 44 -33 72 -19 18
-45 32 -56 32 -16 0 -19 4 -14 18 24 56 6 110 -45 137 -34 18 -35 22 -15 49
26 34 18 66 -25 107 l-40 38 25 37 c31 45 32 90 4 120 l-22 23 27 31 c37 45
43 76 20 118 -15 28 -16 36 -6 40 55 18 91 97 64 140 -13 20 -13 22 6 22 55 0
109 90 83 139 -11 20 -9 21 30 21 34 0 47 6 76 35 29 29 34 41 30 63 -5 27 -4
28 30 24 48 -6 79 13 104 65 15 32 25 41 32 34 6 -6 27 -11 46 -11 27 0 42 8
72 40 38 40 39 40 63 24 35 -22 80 -10 113 31 l27 34 33 -30 c19 -16 39 -29
46 -30z"/>
<path d="M1340 2258 c-308 -44 -582 -290 -672 -603 -30 -105 -32 -324 -4 -425
54 -197 182 -374 352 -489 158 -106 360 -154 549 -131 181 22 340 97 472 224
161 152 245 331 260 547 34 532 -424 953 -957 877z m272 -42 c154 -30 283 -95
396 -200 403 -377 312 -1030 -179 -1286 -117 -61 -210 -83 -354 -83 -147 0
-226 17 -350 78 -502 244 -601 909 -193 1291 184 171 438 246 680 200z"/>
<path d="M1340 2084 c-79 -17 -160 -45 -160 -56 0 -6 29 -75 37 -87 1 -2 24 5
50 17 26 11 83 26 125 32 201 32 413 -58 535 -228 105 -147 135 -339 79 -505
-81 -239 -292 -391 -541 -390 -282 1 -515 208 -555 495 -9 62 -1 176 15 219 3
10 -10 19 -45 30 l-49 15 -10 -50 c-20 -103 -22 -143 -11 -225 22 -159 82
-283 191 -391 129 -128 280 -192 459 -193 266 -2 490 134 605 368 49 100 69
183 68 295 0 116 -20 197 -75 310 -125 255 -438 405 -718 344z m295 -50 c104
-26 207 -88 284 -170 119 -124 171 -256 171 -431 0 -198 -62 -341 -203 -468
-147 -134 -370 -189 -570 -141 -217 51 -395 229 -453 451 -17 67 -20 246 -5
273 7 12 10 -17 10 -93 0 -132 11 -187 56 -280 74 -152 188 -256 346 -315 80
-30 100 -33 192 -33 175 0 311 56 432 178 121 123 178 261 177 427 -1 103 -15
163 -61 263 -66 142 -200 260 -354 311 -101 34 -243 38 -346 10 -66 -18 -89
-16 -51 4 75 40 252 47 375 14z"/>
<path d="M1343 1787 c-17 -6 -34 -15 -37 -18 -4 -3 30 -83 73 -177 44 -95 78
-172 76 -172 -2 0 -83 27 -181 60 -97 33 -178 60 -180 60 -1 0 -8 -26 -14 -57
-32 -153 60 -335 204 -406 196 -96 425 -18 522 178 26 55 29 69 29 165 0 95
-3 110 -28 163 -37 74 -110 147 -184 183 -49 24 -72 29 -153 31 -57 2 -108 -2
-127 -10z m275 -62 c70 -38 136 -112 162 -183 31 -80 25 -205 -12 -277 -31
-60 -111 -137 -164 -160 -99 -41 -218 -39 -307 6 -56 29 -125 102 -152 162
-40 86 -45 207 -11 207 8 0 77 -20 153 -45 76 -25 143 -45 150 -45 19 0 43 30
43 53 0 12 -25 76 -56 142 -68 145 -71 155 -53 166 8 6 55 8 104 7 77 -3 98
-8 143 -33z"/>
</g>
</svg>
